<svg width="480" height="480" viewBox="0 0 480 480" fill="none" xmlns="http://www.w3.org/2000/svg">
<path d="M371.733 43.674C380.385 42.3703 388.148 49.0073 388.148 57.7184V161.896C388.148 209.896 365.926 255.111 327.941 284.444L244.326 348.978C241.778 350.933 238.222 350.933 235.615 348.978L152.059 284.444C114.074 255.17 91.8518 209.896 91.8518 161.896V57.7777C91.8518 49.0666 99.674 42.4296 108.267 43.7333C115.437 44.7999 122.844 45.3333 130.311 45.3333C171.141 45.3333 208.118 28.7999 234.904 2.074C237.689 -0.711189 242.193 -0.711189 245.037 2.074C271.822 28.7999 308.8 45.3333 349.63 45.3333C357.155 45.3333 364.504 44.7999 371.733 43.674Z" fill="#2B1C1C"/>
<path d="M373.333 480H106.667C98.4888 480 91.8518 473.363 91.8518 465.185V405.926C91.8518 397.748 98.4888 391.111 106.667 391.111H373.333C381.511 391.111 388.148 397.748 388.148 405.926V465.185C388.148 473.363 381.511 480 373.333 480Z" fill="#2B1C1C"/>
<path d="M128.889 446.222C134.78 446.222 139.556 441.447 139.556 435.556C139.556 429.665 134.78 424.889 128.889 424.889C122.998 424.889 118.222 429.665 118.222 435.556C118.222 441.447 122.998 446.222 128.889 446.222Z" fill="#FFF0CE"/>
<path d="M173.333 446.222C179.224 446.222 184 441.447 184 435.556C184 429.665 179.224 424.889 173.333 424.889C167.442 424.889 162.667 429.665 162.667 435.556C162.667 441.447 167.442 446.222 173.333 446.222Z" fill="#FFF0CE"/>
<path d="M217.778 446.222C223.669 446.222 228.444 441.447 228.444 435.556C228.444 429.665 223.669 424.889 217.778 424.889C211.887 424.889 207.111 429.665 207.111 435.556C207.111 441.447 211.887 446.222 217.778 446.222Z" fill="#FFF0CE"/>
<path d="M262.222 446.222C268.113 446.222 272.889 441.447 272.889 435.556C272.889 429.665 268.113 424.889 262.222 424.889C256.331 424.889 251.556 429.665 251.556 435.556C251.556 441.447 256.331 446.222 262.222 446.222Z" fill="#FFF0CE"/>
<path d="M306.667 446.222C312.558 446.222 317.333 441.447 317.333 435.556C317.333 429.665 312.558 424.889 306.667 424.889C300.776 424.889 296 429.665 296 435.556C296 441.447 300.776 446.222 306.667 446.222Z" fill="#FFF0CE"/>
<path d="M351.111 446.222C357.002 446.222 361.778 441.447 361.778 435.556C361.778 429.665 357.002 424.889 351.111 424.889C345.22 424.889 340.444 429.665 340.444 435.556C340.444 441.447 345.22 446.222 351.111 446.222Z" fill="#FFF0CE"/>
<path d="M480 475.259H0V480H480V475.259Z" fill="#2B1C1C"/>
<path d="M164.148 139.141L162.844 139.378C161.6 139.615 160.415 138.785 160.178 137.6L159.941 136.296L157.748 136.711L157.985 138.015C158.222 139.259 157.393 140.445 156.207 140.682L154.904 140.919L155.319 143.111L156.622 142.874C157.867 142.637 159.052 143.467 159.289 144.652L159.526 145.956L161.719 145.541L161.481 144.237C161.244 142.993 162.074 141.807 163.259 141.57L164.563 141.333L164.148 139.141Z" fill="white"/>
<path d="M160.652 170.607L159.941 170.726C159.23 170.844 158.578 170.43 158.4 169.718L158.281 169.007L157.037 169.244L157.156 169.955C157.274 170.667 156.859 171.318 156.148 171.496L155.437 171.615L155.674 172.859L156.385 172.741C157.096 172.622 157.748 173.037 157.926 173.748L158.044 174.459L159.289 174.222L159.17 173.511C159.052 172.8 159.467 172.148 160.178 171.97L160.889 171.852L160.652 170.607Z" fill="white"/>
<path d="M188.859 134.993L188.326 135.111C187.793 135.23 187.318 134.874 187.2 134.341L187.081 133.807L186.133 133.985L186.252 134.518C186.37 135.052 186.015 135.526 185.481 135.644L184.948 135.763L185.126 136.711L185.659 136.593C186.193 136.474 186.667 136.83 186.785 137.363L186.904 137.896L187.852 137.718L187.733 137.185C187.615 136.652 187.97 136.178 188.504 136.059L189.037 135.941L188.859 134.993Z" fill="white"/>
<path d="M119.052 96.9481L118.519 97.0666C117.985 97.1852 117.511 96.8296 117.393 96.2963L117.274 95.7629L116.326 95.9407L116.444 96.474C116.563 97.0074 116.207 97.4815 115.674 97.6L115.141 97.7185L115.319 98.6666L115.852 98.5481C116.385 98.4296 116.859 98.7852 116.978 99.3185L117.096 99.8518L118.044 99.674L117.926 99.1407C117.807 98.6074 118.163 98.1333 118.696 98.0148L119.23 97.8963L119.052 96.9481Z" fill="white"/>
<path d="M162.904 241.245L162.37 241.363C161.837 241.482 161.363 241.126 161.244 240.593L161.126 240.059L160.178 240.237L160.296 240.77C160.415 241.304 160.059 241.778 159.526 241.896L158.993 242.015L159.17 242.963L159.704 242.844C160.237 242.726 160.711 243.082 160.83 243.615L160.948 244.148L161.896 243.97L161.778 243.437C161.659 242.904 162.015 242.43 162.548 242.311L163.081 242.193L162.904 241.245Z" fill="white"/>
<path d="M133.867 140.682L133.156 140.8C132.444 140.919 131.793 140.504 131.615 139.793L131.496 139.082L130.252 139.319L130.37 140.03C130.489 140.741 130.074 141.393 129.363 141.57L128.652 141.689L128.889 142.933L129.6 142.815C130.311 142.696 130.963 143.111 131.141 143.822L131.259 144.533L132.504 144.296L132.385 143.585C132.267 142.874 132.681 142.222 133.393 142.045L134.104 141.926L133.867 140.682Z" fill="white"/>
<path d="M171.556 109.096L171.2 109.155C170.844 109.215 170.489 108.978 170.43 108.622L170.37 108.267L169.719 108.385L169.778 108.741C169.837 109.096 169.6 109.452 169.244 109.511L168.889 109.57L169.007 110.222L169.363 110.163C169.719 110.104 170.074 110.341 170.133 110.696L170.193 111.052L170.844 110.933L170.785 110.578C170.726 110.222 170.963 109.867 171.319 109.807L171.674 109.748L171.556 109.096Z" fill="white"/>
<path d="M215.882 88.1778L215.704 88.2371C215.526 88.2963 215.348 88.1778 215.348 88L215.289 87.8223L214.993 87.8815L215.052 88.0593C215.111 88.2371 214.993 88.4149 214.815 88.4149L214.637 88.4741L214.696 88.7704L214.874 88.7112C215.052 88.6519 215.23 88.7704 215.23 88.9482L215.289 89.126L215.585 89.0667L215.526 88.8889C215.467 88.7112 215.585 88.5334 215.763 88.5334L215.941 88.4741L215.882 88.1778Z" fill="white"/>
<path d="M240.356 106.252L240.178 106.311C240 106.37 239.822 106.252 239.822 106.074L239.763 105.896L239.467 105.956L239.526 106.133C239.585 106.311 239.467 106.489 239.289 106.489L239.111 106.548L239.17 106.844L239.348 106.785C239.526 106.726 239.704 106.844 239.704 107.022L239.763 107.2L240.059 107.141L240 106.963C239.941 106.785 240.059 106.607 240.237 106.607L240.415 106.548L240.356 106.252Z" fill="white"/>
<path d="M211.793 125.985L211.437 126.044C211.082 126.104 210.726 125.867 210.667 125.511L210.607 125.156L209.956 125.274L210.015 125.63C210.074 125.985 209.837 126.341 209.482 126.4L209.126 126.459L209.245 127.111L209.6 127.052C209.956 126.993 210.311 127.23 210.37 127.585L210.43 127.941L211.082 127.822L211.022 127.467C210.963 127.111 211.2 126.756 211.556 126.696L211.911 126.637L211.793 125.985Z" fill="white"/>
<path d="M146.667 105.244L146.311 105.304C145.956 105.363 145.6 105.126 145.541 104.77L145.481 104.415L144.83 104.533L144.889 104.889C144.948 105.244 144.711 105.6 144.356 105.659L144 105.718L144.119 106.37L144.474 106.311C144.83 106.252 145.185 106.489 145.244 106.844L145.304 107.2L145.956 107.081L145.896 106.726C145.837 106.37 146.074 106.015 146.43 105.956L146.785 105.896L146.667 105.244Z" fill="white"/>
<path d="M152.652 72.6519L152.296 72.7112C151.941 72.7704 151.585 72.5334 151.526 72.1778L151.467 71.8223L150.815 71.9408L150.874 72.2963C150.933 72.6519 150.696 73.0075 150.341 73.0667L149.985 73.126L150.104 73.7778L150.459 73.7186C150.815 73.6593 151.17 73.8963 151.23 74.2519L151.289 74.6075L151.941 74.4889L151.882 74.1334C151.822 73.7778 152.059 73.4223 152.415 73.363L152.77 73.3037L152.652 72.6519Z" fill="white"/>
<path d="M168 76.5037L167.644 76.563C167.289 76.6222 166.933 76.3852 166.874 76.0296L166.815 75.6741L166.163 75.7926L166.222 76.1481C166.282 76.5037 166.044 76.8593 165.689 76.9185L165.333 76.9778L165.452 77.6296L165.807 77.5704C166.163 77.5111 166.519 77.7481 166.578 78.1037L166.637 78.4593L167.289 78.3407L167.23 77.9852C167.17 77.6296 167.407 77.2741 167.763 77.2148L168.119 77.1556L168 76.5037Z" fill="white"/>
<path d="M120.059 165.926L119.881 165.985C119.704 166.044 119.526 165.926 119.526 165.748L119.467 165.57L119.17 165.63L119.23 165.807C119.289 165.985 119.17 166.163 118.993 166.163L118.815 166.222L118.874 166.518L119.052 166.459C119.23 166.4 119.407 166.518 119.407 166.696L119.467 166.874L119.763 166.815L119.704 166.637C119.644 166.459 119.763 166.281 119.941 166.281L120.119 166.222L120.059 165.926Z" fill="white"/>
<path d="M164.918 199.763L164.563 199.822C164.207 199.881 163.852 199.644 163.793 199.289L163.733 198.933L163.081 199.052L163.141 199.407C163.2 199.763 162.963 200.119 162.607 200.178L162.252 200.237L162.37 200.889L162.726 200.83C163.081 200.77 163.437 201.007 163.496 201.363L163.556 201.719L164.207 201.6L164.148 201.244C164.089 200.889 164.326 200.533 164.681 200.474L165.037 200.415L164.918 199.763Z" fill="white"/>
<path d="M203.2 147.674L202.844 147.733C202.489 147.793 202.133 147.556 202.074 147.2L202.015 146.844L201.363 146.963L201.422 147.319C201.481 147.674 201.244 148.03 200.889 148.089L200.533 148.148L200.652 148.8L201.007 148.741C201.363 148.682 201.719 148.919 201.778 149.274L201.837 149.63L202.489 149.511L202.43 149.156C202.37 148.8 202.607 148.444 202.963 148.385L203.319 148.326L203.2 147.674Z" fill="white"/>
<path d="M227.259 168.533L227.081 168.593C226.904 168.652 226.726 168.533 226.726 168.356L226.667 168.178L226.37 168.237L226.43 168.415C226.489 168.593 226.37 168.77 226.193 168.77L226.015 168.83L226.074 169.126L226.252 169.067C226.43 169.007 226.607 169.126 226.607 169.304L226.667 169.481L226.963 169.422L226.904 169.244C226.844 169.067 226.963 168.889 227.141 168.889L227.318 168.83L227.259 168.533Z" fill="white"/>
<path d="M134.815 235.141L134.637 235.2C134.459 235.259 134.281 235.141 134.281 234.963L134.222 234.785L133.926 234.844L133.985 235.022C134.044 235.2 133.926 235.378 133.748 235.378L133.57 235.437L133.63 235.733L133.807 235.674C133.985 235.615 134.163 235.733 134.163 235.911L134.222 236.089L134.518 236.03L134.459 235.852C134.4 235.674 134.518 235.496 134.696 235.496L134.874 235.437L134.815 235.141Z" fill="white"/>
<path d="M142.933 270.045L142.756 270.104C142.578 270.163 142.4 270.045 142.4 269.867L142.341 269.689L142.045 269.748L142.104 269.926C142.163 270.104 142.045 270.282 141.867 270.282L141.689 270.341L141.748 270.637L141.926 270.578C142.104 270.519 142.282 270.637 142.282 270.815L142.341 270.993L142.637 270.933L142.578 270.756C142.519 270.578 142.637 270.4 142.815 270.4L142.993 270.341L142.933 270.045Z" fill="white"/>
<path d="M140.444 203.141L140.089 203.2C139.733 203.259 139.378 203.022 139.319 202.667L139.259 202.311L138.607 202.43L138.667 202.785C138.726 203.141 138.489 203.496 138.133 203.555L137.778 203.615L137.896 204.267L138.252 204.207C138.607 204.148 138.963 204.385 139.022 204.741L139.082 205.096L139.733 204.978L139.674 204.622C139.615 204.267 139.852 203.911 140.207 203.852L140.563 203.793L140.444 203.141Z" fill="white"/>
<path d="M139.911 179.082L139.556 179.141C139.2 179.2 138.845 178.963 138.785 178.608L138.726 178.252L138.074 178.37L138.133 178.726C138.193 179.082 137.956 179.437 137.6 179.496L137.245 179.556L137.363 180.208L137.719 180.148C138.074 180.089 138.43 180.326 138.489 180.682L138.548 181.037L139.2 180.919L139.141 180.563C139.082 180.208 139.319 179.852 139.674 179.793L140.03 179.733L139.911 179.082Z" fill="white"/>
<path d="M183.822 227.081L183.644 227.141C183.467 227.2 183.289 227.081 183.289 226.904L183.23 226.726L182.933 226.785L182.993 226.963C183.052 227.141 182.933 227.318 182.756 227.318L182.578 227.378L182.637 227.674L182.815 227.615C182.993 227.555 183.17 227.674 183.17 227.852L183.23 228.03L183.526 227.97L183.467 227.792C183.407 227.615 183.526 227.437 183.704 227.437L183.881 227.378L183.822 227.081Z" fill="white"/>
<path d="M159.704 222.578L159.526 222.637C159.348 222.696 159.17 222.578 159.17 222.4L159.111 222.222H158.815L158.874 222.4C158.933 222.578 158.815 222.755 158.637 222.755L158.459 222.815L158.518 223.111L158.696 223.052C158.874 222.993 159.052 223.111 159.052 223.289L159.111 223.467L159.407 223.407L159.348 223.23C159.289 223.052 159.407 222.874 159.585 222.874L159.763 222.815L159.704 222.578Z" fill="white"/>
<path d="M162.133 284.622L161.956 284.681C161.778 284.741 161.6 284.622 161.6 284.444L161.541 284.267L161.244 284.326L161.304 284.504C161.363 284.681 161.244 284.859 161.067 284.859L160.889 284.918L160.948 285.215L161.126 285.156C161.304 285.096 161.482 285.215 161.482 285.393L161.541 285.57L161.837 285.511L161.778 285.333C161.719 285.155 161.837 284.978 162.015 284.978L162.193 284.918L162.133 284.622Z" fill="white"/>
<path d="M145.067 300.207L144.889 300.267C144.711 300.326 144.533 300.207 144.533 300.03L144.474 299.852L144.178 299.911L144.237 300.089C144.296 300.267 144.178 300.444 144 300.444L143.822 300.504L143.882 300.8L144.059 300.741C144.237 300.681 144.415 300.8 144.415 300.978L144.474 301.156L144.77 301.096L144.711 300.918C144.652 300.741 144.77 300.563 144.948 300.563L145.126 300.504L145.067 300.207Z" fill="white"/>
<path d="M127.23 250.311L127.052 250.37C126.874 250.43 126.696 250.311 126.696 250.133L126.637 249.956L126.341 250.015L126.4 250.193C126.459 250.37 126.341 250.548 126.163 250.548L125.985 250.607L126.044 250.904L126.222 250.844C126.4 250.785 126.578 250.904 126.578 251.082L126.637 251.259L126.933 251.2L126.874 251.022C126.815 250.844 126.933 250.667 127.111 250.667L127.289 250.607L127.23 250.311Z" fill="white"/>
<path d="M115.319 195.615L115.141 195.674C114.963 195.733 114.785 195.615 114.785 195.437L114.726 195.259L114.43 195.319L114.489 195.496C114.548 195.674 114.43 195.852 114.252 195.852L114.074 195.911L114.133 196.207L114.311 196.148C114.489 196.089 114.667 196.207 114.667 196.385L114.726 196.563L115.022 196.504L114.963 196.326C114.904 196.148 115.022 195.97 115.2 195.97L115.378 195.911L115.319 195.615Z" fill="white"/>
<path d="M105.482 132.741L105.304 132.8C105.126 132.859 104.948 132.741 104.948 132.563L104.889 132.385L104.593 132.445L104.652 132.622C104.711 132.8 104.593 132.978 104.415 132.978L104.237 133.037L104.296 133.333L104.474 133.274C104.652 133.215 104.83 133.333 104.83 133.511L104.889 133.689L105.185 133.63L105.126 133.452C105.067 133.274 105.185 133.096 105.363 133.096L105.541 133.037L105.482 132.741Z" fill="white"/>
<path d="M126.282 68.089L126.104 68.1482C125.926 68.2075 125.748 68.0889 125.748 67.9112L125.689 67.7334L125.393 67.7927L125.452 67.9704C125.511 68.1482 125.393 68.326 125.215 68.326L125.037 68.3852L125.096 68.6815L125.274 68.6223C125.452 68.563 125.63 68.6815 125.63 68.8593L125.689 69.0371L125.985 68.9778L125.926 68.8001C125.867 68.6223 125.985 68.4445 126.163 68.4445L126.341 68.3852L126.282 68.089Z" fill="white"/>
<path d="M162.844 45.0372L162.667 45.0965C162.489 45.1557 162.311 45.0372 162.311 44.8594L162.252 44.6816L161.956 44.7409L162.015 44.9187C162.074 45.0965 161.956 45.2742 161.778 45.2742L161.6 45.3335L161.659 45.6298L161.837 45.5705C162.015 45.5113 162.193 45.6298 162.193 45.8076L162.252 45.9853L162.548 45.9261L162.489 45.7483C162.43 45.5705 162.548 45.3927 162.726 45.3927L162.904 45.3335L162.844 45.0372Z" fill="white"/>
<path d="M212.267 52.8592L212.089 52.9185C211.911 52.9777 211.733 52.8592 211.733 52.6814L211.674 52.5037L211.378 52.5629L211.437 52.7407C211.496 52.9185 211.378 53.0963 211.2 53.0963L211.022 53.1555L211.081 53.4518L211.259 53.3926C211.437 53.3333 211.615 53.4518 211.615 53.6296L211.674 53.8074L211.97 53.7481L211.911 53.5703C211.852 53.3926 211.97 53.2148 212.148 53.2148L212.326 53.1555L212.267 52.8592Z" fill="white"/>
<path d="M184 166.459L183.644 166.519C183.289 166.578 182.933 166.341 182.874 165.985L182.815 165.63L182.163 165.748L182.222 166.104C182.282 166.459 182.044 166.815 181.689 166.874L181.333 166.933L181.452 167.585L181.807 167.526C182.163 167.467 182.519 167.704 182.578 168.059L182.637 168.415L183.289 168.296L183.23 167.941C183.17 167.585 183.407 167.23 183.763 167.17L184.119 167.111L184 166.459Z" fill="white"/>
<path d="M195.141 105.956L194.785 106.015C194.43 106.074 194.074 105.837 194.015 105.482L193.956 105.126L193.304 105.245L193.363 105.6C193.422 105.956 193.185 106.311 192.83 106.37L192.474 106.43L192.593 107.082L192.948 107.022C193.304 106.963 193.659 107.2 193.719 107.556L193.778 107.911L194.43 107.793L194.37 107.437C194.311 107.082 194.548 106.726 194.904 106.667L195.259 106.607L195.141 105.956Z" fill="white"/>
<path d="M283.2 153.659H261.867V132.859C261.867 120.77 252.03 110.993 240 110.993C227.97 110.993 218.133 120.83 218.133 132.859V153.659H196.8V132.859C196.8 109.037 216.178 89.6592 240 89.6592C263.822 89.6592 283.2 109.037 283.2 132.859V153.659Z" fill="white"/>
<path d="M281.007 250.193H198.993C188.918 250.193 180.741 242.015 180.741 231.941V171.852C180.741 161.778 188.918 153.6 198.993 153.6H281.067C291.141 153.6 299.318 161.778 299.318 171.852V231.941C299.259 242.015 291.081 250.193 281.007 250.193Z" fill="white"/>
<path d="M377.304 300.444L378.193 299.437C379.022 298.489 380.504 298.37 381.511 299.2L382.519 300.089L384.059 298.37L383.052 297.481C382.104 296.652 381.985 295.17 382.815 294.163L383.704 293.155L381.985 291.615L381.096 292.622C380.267 293.57 378.785 293.689 377.778 292.859L376.77 291.97L375.23 293.689L376.237 294.578C377.185 295.407 377.304 296.889 376.474 297.896L375.585 298.904L377.304 300.444Z" fill="#2B1C1C"/>
<path d="M326.4 343.644L326.933 343.052C327.407 342.519 328.237 342.459 328.83 342.933L329.422 343.467L330.311 342.459L329.719 341.926C329.185 341.452 329.126 340.622 329.6 340.03L330.133 339.437L329.126 338.548L328.593 339.141C328.119 339.674 327.289 339.733 326.696 339.259L326.104 338.726L325.215 339.733L325.807 340.267C326.341 340.741 326.4 341.57 325.926 342.163L325.393 342.756L326.4 343.644Z" fill="#2B1C1C"/>
<path d="M367.289 351.111L367.822 350.519C368.296 349.985 369.126 349.926 369.719 350.4L370.311 350.933L371.2 349.926L370.607 349.393C370.074 348.919 370.015 348.089 370.489 347.496L371.022 346.904L370.015 346.015L369.481 346.607C369.007 347.141 368.178 347.2 367.585 346.726L366.993 346.193L366.104 347.2L366.696 347.733C367.23 348.207 367.289 349.037 366.815 349.63L366.281 350.222L367.289 351.111Z" fill="#2B1C1C"/>
<path d="M362.489 321.659L362.607 321.541C362.726 321.422 362.963 321.363 363.082 321.481L363.2 321.6L363.437 321.363L363.319 321.244C363.2 321.126 363.141 320.889 363.259 320.77L363.378 320.652L363.141 320.415L363.022 320.533C362.904 320.652 362.667 320.711 362.548 320.593L362.43 320.474L362.193 320.711L362.311 320.83C362.43 320.948 362.489 321.185 362.37 321.304L362.252 321.422L362.489 321.659Z" fill="#2B1C1C"/>
<path d="M322.252 304.296L322.489 304C322.726 303.704 323.141 303.704 323.437 303.941L323.733 304.178L324.148 303.704L323.852 303.467C323.556 303.23 323.556 302.815 323.793 302.518L324.03 302.222L323.556 301.807L323.319 302.104C323.082 302.4 322.667 302.4 322.37 302.163L322.074 301.926L321.659 302.4L321.956 302.637C322.252 302.874 322.252 303.289 322.015 303.585L321.778 303.881L322.252 304.296Z" fill="#2B1C1C"/>
<path d="M337.956 323.615L338.193 323.319C338.43 323.022 338.844 323.022 339.141 323.259L339.437 323.496L339.852 323.022L339.556 322.785C339.259 322.548 339.259 322.133 339.496 321.837L339.733 321.541L339.259 321.126L339.022 321.422C338.785 321.719 338.37 321.719 338.074 321.482L337.778 321.185L337.363 321.659L337.659 321.896C337.956 322.133 337.956 322.548 337.718 322.844L337.481 323.141L337.956 323.615Z" fill="#2B1C1C"/>
<path d="M347.556 294.459L347.674 294.341C347.793 294.222 348.03 294.163 348.148 294.282L348.267 294.4L348.504 294.163L348.385 294.045C348.267 293.926 348.207 293.689 348.326 293.57L348.444 293.452L348.207 293.215L348.089 293.333C347.97 293.452 347.733 293.511 347.615 293.393L347.496 293.274L347.259 293.511L347.378 293.63C347.496 293.748 347.556 293.985 347.437 294.104L347.319 294.222L347.556 294.459Z" fill="#2B1C1C"/>
<path d="M395.556 339.496L395.674 339.378C395.793 339.259 396.03 339.2 396.148 339.319L396.267 339.437L396.504 339.2L396.385 339.082C396.267 338.963 396.207 338.726 396.326 338.608L396.444 338.489L396.207 338.252L396.089 338.37C395.97 338.489 395.733 338.548 395.615 338.43L395.496 338.311L395.259 338.548L395.378 338.667C395.496 338.785 395.556 339.022 395.437 339.141L395.319 339.259L395.556 339.496Z" fill="#2B1C1C"/>
</svg>
