<svg width="28" height="28" viewBox="0 0 28 28" fill="none" xmlns="http://www.w3.org/2000/svg">
<path d="M21.1411 9.71408C21.1411 7.89545 20.4187 6.15131 19.1327 4.86534C17.8468 3.57938 16.1026 2.85693 14.284 2.85693C12.4654 2.85693 10.7212 3.57938 9.43527 4.86534C8.14931 6.15131 7.42686 7.89545 7.42686 9.71408C7.42686 17.7141 3.99829 19.9998 3.99829 19.9998H24.5697C24.5697 19.9998 21.1411 17.7141 21.1411 9.71408Z" stroke="#2B1C1C" stroke-width="2" stroke-linecap="round" stroke-linejoin="round"/>
<path d="M16.2612 24.5713C16.0602 24.9177 15.7718 25.2052 15.4249 25.405C15.0779 25.6049 14.6845 25.7101 14.284 25.7101C13.8836 25.7101 13.4902 25.6049 13.1432 25.405C12.7962 25.2052 12.5078 24.9177 12.3069 24.5713" stroke="#2B1C1C" stroke-width="2" stroke-linecap="round" stroke-linejoin="round"/>
</svg>
